<svg xmlns="http://www.w3.org/2000/svg" xmlns:xlink="http://www.w3.org/1999/xlink" preserveAspectRatio="xMidYMid meet" version="1.0" viewBox="0.0 0.0 126.0 117.7" zoomAndPan="magnify" style="fill: rgb(146, 196, 233);" original_string_length="4381"><g id="__id975_s4z1lhpx9i"><path d="M125.979,58.083l-4.631-21.951c2.774-0.786,4.528-3.516,4.08-6.37l-1.5-9.389c-0.384-2.419-2.52-4.113-4.951-3.952 l-1.224,0.077c-0.762-3.194-1.883-5.677-3.345-7.372c-1.712-1.986-4.148-2.945-7.025-2.776c-2.911,0.169-5.192,2.624-5.192,5.588 v10.869c-2.022,0.458-3.54,2.262-3.54,4.421v31.71h-3.261l1.375-3.094c0.137-0.31,0.109-0.667-0.076-0.951s-0.5-0.455-0.838-0.455 h-0.24c-0.675-1.712-2.709-5.98-6.338-6.394c-3.305-0.376-5.059,1.351-5.779,2.339c-0.536-0.052-1.078-0.067-1.603-0.051v-1.573 c2.916-0.48,5.15-3.011,5.15-6.061v-6.73c0-0.552-0.448-1-1-1h-10.3c-0.552,0-1,0.448-1,1v6.73c0,3.05,2.234,5.581,5.15,6.061 v1.822c-3.04,0.722-4.207,2.704-4.638,3.857H73.72c-0.338,0-0.654,0.171-0.838,0.455s-0.213,0.642-0.076,0.951l1.375,3.094H68.33 c-1.969,0-3.57,1.602-3.57,3.569v2.04c0,0.553,0.448,1,1,1h11.138L98.65,81.203V110.4c0,4.047,3.293,7.34,7.34,7.34H125 c0.552,0,1-0.447,1-1V58.29C126,58.221,125.993,58.151,125.979,58.083z M107.499,8.348c2.269-0.13,4.085,0.567,5.394,2.085 c1.367,1.584,2.41,4.048,3.098,7.318c0.413,2.01,0.587,3.851,0.659,4.938h-12.46V11.94C104.19,10.034,105.643,8.456,107.499,8.348z M89.047,50.034c2.038,0.232,3.579,2.642,4.392,4.406h-3.739c-0.476-1.12-1.653-2.711-3.95-3.556 C86.392,50.352,87.431,49.848,89.047,50.034z M83.832,52.436c1.92,0.328,2.975,1.247,3.543,2.004H81.89v-2.107 C82.527,52.31,83.216,52.339,83.832,52.436z M76.74,42.7v-1h8.3v1c0,2.288-1.862,4.15-4.15,4.15S76.74,44.988,76.74,42.7z M79.89,52.662v1.778h-2.415C77.879,53.812,78.605,53.082,79.89,52.662z M66.76,62.51c0-0.865,0.705-1.569,1.57-1.569h7.39h18.13 h4.8v2.609H66.76V62.51z M80.322,65.55H98.65v13.189L80.322,65.55z M124,115.74h-18.01c-2.945,0-5.34-2.396-5.34-5.34V27.23 c0-1.4,1.14-2.54,2.54-2.54h13.699l2.303,10.936v0L124,58.395V115.74z" style="fill: inherit;"/><path d="M90.15,89.63H76.192c-0.528-1.56-1.012-3.713-1.414-6.284c-0.689-4.407-4.448-7.605-8.938-7.605h-1.31v-4.59 c0-3.044-2.472-5.521-5.51-5.521H28.921l-6.224-29.497c2.774-0.786,4.528-3.516,4.08-6.37l-1.5-9.389 c-0.384-2.419-2.502-4.11-4.94-3.952l-1.232,0.077c-0.749-3.176-1.87-5.659-3.346-7.37c-1.704-1.988-4.135-2.948-7.027-2.778 C5.82,6.522,3.54,8.977,3.54,11.94v10.869C1.518,23.267,0,25.071,0,27.23v83.17c0,4.047,3.292,7.34,7.34,7.34H87 c0.146,0,0.291-0.032,0.424-0.094c0.174-0.082,4.277-2.093,4.266-10.086c0-0.629-0.083-1.248-0.232-1.869 c2.669-0.599,4.671-2.984,4.671-5.831v-4.25C96.13,92.313,93.447,89.63,90.15,89.63z M8.849,8.348 c2.277-0.133,4.091,0.566,5.394,2.085c1.364,1.581,2.435,4.112,3.098,7.321c0.419,2.009,0.591,3.849,0.661,4.936H5.54V11.94 C5.54,10.034,6.993,8.457,8.849,8.348z M86.733,115.74H7.34c-2.944,0-5.34-2.396-5.34-5.34V27.23c0-1.4,1.14-2.54,2.54-2.54h13.699 l8.892,42.146c0.01,0.048,0.023,0.093,0.039,0.138l2.101,9.973c0.098,0.463,0.506,0.794,0.979,0.794h35.59 c3.498,0,6.426,2.487,6.962,5.914c0.488,3.126,1.079,5.595,1.755,7.334c0.004,0.01,0.008,0.018,0.012,0.028 c0.001,0.002,0.001,0.004,0.002,0.005c0.351,0.907,0.722,1.604,1.128,2.119c0.929,1.205,2.725,2.399,4.805,3.782 c3.284,2.185,7.37,4.902,8.717,8.285c0.316,0.799,0.47,1.568,0.47,2.354C89.698,113.383,87.372,115.318,86.733,115.74z" style="fill: inherit;"/><path d="M40.61,53.22h24.78c3.821,0,6.93-3.109,6.93-6.93V19.31c0-5.151-2.007-10-5.654-13.658C63.01,2.007,58.157,0,53,0 C42.353,0,33.69,8.663,33.69,19.31v26.98C33.69,50.111,36.794,53.22,40.61,53.22z M53,6.34c9.127,0,12.313,7.162,13.231,10.07 h-8.192c-0.467-2.357-2.547-4.14-5.039-4.14s-4.572,1.783-5.039,4.14h-8.192C40.687,13.502,43.873,6.34,53,6.34z M39.47,18.41 h8.491c0.467,2.357,2.547,4.14,5.039,4.14s4.572-1.783,5.039-4.14h8.491v24.17c0,2.729-2.22,4.95-4.95,4.95H44.42 c-2.729,0-4.95-2.221-4.95-4.95V18.41z" style="fill: inherit;"/><path d="M48.37,34.85c0.291,0,0.579-0.126,0.776-0.369l7.17-8.82c0.349-0.429,0.284-1.059-0.145-1.407 c-0.428-0.348-1.057-0.284-1.407,0.145l-7.17,8.82c-0.349,0.429-0.284,1.059,0.145,1.407C47.925,34.777,48.148,34.85,48.37,34.85z" style="fill: inherit;"/><path d="M55.254,32.339l-7.17,8.82c-0.349,0.429-0.284,1.059,0.145,1.407c0.186,0.151,0.409,0.224,0.63,0.224 c0.291,0,0.579-0.126,0.776-0.369l7.17-8.82c0.349-0.429,0.284-1.059-0.145-1.407C56.232,31.846,55.603,31.911,55.254,32.339z" style="fill: inherit;"/></g></svg>