<svg xmlns="http://www.w3.org/2000/svg" xmlns:xlink="http://www.w3.org/1999/xlink" preserveAspectRatio="xMidYMid meet" version="1.0" viewBox="0.0 0.0 1175.0 1091.5" zoomAndPan="magnify" style="fill: rgb(0, 0, 0);" original_string_length="6103"><defs><clipPath id="__id2211_s4z1lhpx9i"><path d="M 116 0 L 1175.039062 0 L 1175.039062 923 L 116 923 Z M 116 0"/></clipPath><clipPath id="__id2212_s4z1lhpx9i"><path d="M 0 49 L 1041 49 L 1041 1091.519531 L 0 1091.519531 Z M 0 49"/></clipPath></defs><g><g clip-path="url(#__id2211_s4z1lhpx9i)" id="__id2213_s4z1lhpx9i"><path d="M 1169.371094 13.859375 C 1152.609375 9.511719 1135.839844 5.171875 1119.078125 0.828125 C 1117.78125 0.101562 1116.171875 -0.210938 1114.308594 0.148438 C 1113.449219 0.238281 1112.660156 0.46875 1111.960938 0.820312 C 1108.699219 1.871094 1105.480469 3.039062 1102.28125 4.230469 C 1091.351562 8.28125 1080.601562 12.730469 1070 17.449219 C 1054.058594 24.558594 1038.449219 32.300781 1023.128906 40.5 C 1002.539062 51.519531 982.492188 63.398438 962.976562 75.960938 C 938.597656 91.648438 915.019531 108.40625 892.273438 126.042969 C 865.738281 146.617188 840.34375 168.425781 816.109375 191.265625 C 788.183594 217.582031 761.796875 245.269531 736.953125 274.066406 C 708.761719 306.746094 682.46875 340.777344 658.132812 375.972656 C 630.703125 415.644531 605.726562 456.738281 583.066406 498.867188 C 557.550781 546.3125 534.933594 595.078125 514.957031 644.707031 C 511.070312 654.363281 507.289062 664.058594 503.601562 673.78125 C 490.710938 663.726562 477.816406 653.675781 464.925781 643.621094 C 431.128906 617.269531 397.332031 590.914062 363.535156 564.558594 C 332.476562 540.339844 301.417969 516.121094 270.359375 491.902344 C 262.464844 485.746094 254.570312 479.59375 246.675781 473.4375 C 244.660156 471.863281 242.894531 470.351562 240.390625 469.410156 C 232.5625 466.460938 224.457031 462.632812 216.308594 460.566406 C 213.214844 459.78125 209.320312 460.851562 206.191406 461.332031 C 200.738281 462.171875 195.289062 463.007812 189.839844 463.84375 C 186.40625 464.371094 181.761719 464.347656 178.890625 466.378906 C 177.3125 467.496094 176.570312 468.929688 175.632812 470.464844 C 166.921875 484.71875 158.210938 498.96875 149.5 513.21875 C 139.792969 529.101562 130.082031 544.988281 120.371094 560.871094 C 118.105469 564.582031 115.511719 567.667969 116.304688 572.148438 C 117.222656 577.351562 118.339844 582.535156 119.359375 587.726562 C 123.25 607.570312 127.144531 627.417969 131.035156 647.265625 C 132.234375 653.378906 133.171875 659.597656 134.644531 665.664062 C 135.507812 669.21875 138.144531 671.070312 141.660156 672.371094 C 144.730469 673.503906 147.796875 674.636719 150.851562 675.796875 C 151.9375 676.210938 153.023438 676.625 154.109375 677.042969 C 154.703125 677.269531 155.296875 677.496094 155.890625 677.726562 C 156.199219 677.84375 156.507812 677.964844 156.816406 678.082031 C 156.867188 678.101562 156.902344 678.113281 156.941406 678.128906 C 160.015625 679.324219 163.089844 680.53125 166.15625 681.746094 C 183.574219 688.652344 200.84375 695.882812 217.980469 703.367188 C 269.417969 725.839844 319.726562 750.601562 368.238281 778.027344 C 425.335938 810.300781 480.367188 846.328125 529.203125 888.640625 C 540.910156 898.78125 552.222656 909.308594 563.0625 920.234375 C 566.816406 924.019531 574.597656 922.199219 575.796875 917.148438 C 577.308594 910.757812 579.023438 904.402344 580.746094 898.054688 C 585.539062 880.40625 590.746094 862.847656 596.222656 845.371094 C 604.570312 818.734375 613.574219 792.273438 623.160156 765.996094 C 635.328125 732.632812 648.441406 699.558594 662.496094 666.828125 C 678.652344 629.207031 696.089844 592.050781 714.894531 555.476562 C 735.53125 515.328125 757.8125 475.878906 781.953125 437.40625 C 807.113281 397.3125 834.300781 358.269531 863.847656 320.773438 C 893.910156 282.632812 926.503906 246.136719 961.894531 212.046875 C 997.34375 177.902344 1035.621094 146.085938 1076.960938 118.035156 C 1097.839844 103.871094 1119.460938 90.628906 1141.800781 78.480469 C 1146.929688 75.699219 1154.621094 73.21875 1157.050781 68.011719 C 1157.871094 66.238281 1158.460938 64.351562 1159.160156 62.539062 C 1162.371094 54.28125 1165.570312 46.011719 1168.769531 37.738281 C 1170.75 32.640625 1172.71875 27.550781 1174.691406 22.460938 C 1176.078125 18.878906 1173.109375 14.820312 1169.371094 13.859375" style="fill: rgb(63, 169, 113);"/></g><g clip-path="url(#__id2212_s4z1lhpx9i)" id="__id2214_s4z1lhpx9i"><path d="M 939.300781 261.429688 C 918.378906 283.738281 898.007812 307.441406 878.429688 332.289062 C 877.875 332.992188 877.324219 333.703125 876.769531 334.40625 C 921.707031 402.140625 947.914062 483.351562 947.914062 570.578125 C 947.914062 806.578125 756.121094 998.574219 520.378906 998.574219 C 284.636719 998.574219 92.84375 806.578125 92.84375 570.578125 C 92.84375 334.582031 284.636719 142.585938 520.378906 142.585938 C 610.273438 142.585938 693.773438 170.503906 762.6875 218.136719 C 776 204.226562 789.59375 190.722656 803.378906 177.730469 C 812.457031 169.175781 821.691406 160.78125 831.035156 152.566406 C 797.710938 127.683594 761.558594 106.941406 722.949219 90.601562 C 658.765625 63.421875 590.609375 49.640625 520.378906 49.640625 C 450.148438 49.640625 381.996094 63.421875 317.808594 90.601562 C 255.839844 116.835938 200.191406 154.390625 152.414062 202.21875 C 104.640625 250.046875 67.125 305.753906 40.914062 367.789062 C 13.765625 432.042969 0 500.273438 0 570.578125 C 0 640.886719 13.765625 709.113281 40.914062 773.367188 C 67.121094 835.402344 104.636719 891.109375 152.414062 938.941406 C 200.1875 986.765625 255.835938 1024.320312 317.808594 1050.558594 C 381.996094 1077.738281 450.152344 1091.519531 520.378906 1091.519531 C 590.609375 1091.519531 658.761719 1077.738281 722.949219 1050.558594 C 784.921875 1024.320312 840.570312 986.765625 888.34375 938.941406 C 936.121094 891.109375 973.636719 835.402344 999.847656 773.367188 C 1026.988281 709.113281 1040.761719 640.886719 1040.761719 570.578125 C 1040.761719 500.273438 1026.988281 432.046875 999.847656 367.789062 C 983.816406 329.847656 963.546875 294.28125 939.300781 261.429688" style="fill: rgb(63, 169, 113);"/></g></g></svg>