<svg xmlns="http://www.w3.org/2000/svg" xmlns:xlink="http://www.w3.org/1999/xlink" preserveAspectRatio="xMidYMid meet" style="isolation: isolate; fill: rgb(84, 172, 226);" version="1.0" viewBox="5.5 5.5 501.0 501.0" zoomAndPan="magnify" original_string_length="3189"><defs><clipPath id="__id806_s4z1lhpx9i"><path d="M0 0H512V512H0z"/></clipPath></defs><g clip-path="url(#__id806_s4z1lhpx9i)" id="__id807_s4z1lhpx9i"><path d="M 103.01 86.22 C 100.84 88.17 97.98 89.18 95.07 89.02 C 92.16 88.87 89.42 87.57 87.47 85.4 C 85.52 83.23 84.51 80.37 84.66 77.46 C 84.82 74.55 86.12 71.81 88.29 69.86 C 111.24 49.21 137.81 32.98 166.67 22 C 195.29 11.09 225.67 5.49 256.3 5.49 C 277.78 5.48 299.17 8.26 319.93 13.74 C 341.4 19.42 362.02 27.94 381.24 39.05 C 400.84 50.35 418.82 64.25 434.69 80.38 C 450.02 95.98 463.24 113.54 473.99 132.6 C 484.59 151.39 492.73 171.46 498.21 192.33 C 503.7 213.2 506.48 234.69 506.48 256.27 C 506.49 288.03 500.41 319.51 488.59 349 C 487.51 351.7 485.39 353.87 482.71 355.02 C 480.03 356.16 477 356.2 474.29 355.11 C 471.58 354.03 469.41 351.91 468.27 349.23 C 467.12 346.55 467.09 343.52 468.17 340.81 C 478.95 313.93 484.49 285.23 484.48 256.27 C 484.48 236.58 481.94 216.97 476.93 197.92 C 471.93 178.88 464.5 160.55 454.83 143.41 C 445.03 126.03 432.98 110.03 419 95.8 C 404.52 81.09 388.12 68.41 370.24 58.1 C 352.7 47.96 333.89 40.2 314.31 35.01 C 295.38 30.01 275.88 27.48 256.3 27.49 C 228.34 27.49 200.62 32.6 174.5 42.56 C 148.18 52.58 123.94 67.38 103.01 86.22 Z" style="fill: inherit;"/><path d="M 443.55 386.48 C 445.22 384.09 447.77 382.46 450.64 381.94 C 453.51 381.43 456.47 382.08 458.87 383.75 C 461.26 385.42 462.89 387.97 463.4 390.84 C 463.92 393.71 463.27 396.67 461.6 399.06 C 438.88 431.64 408.77 458.39 373.74 477.11 C 355.99 486.59 337.15 493.88 317.64 498.83 C 297.49 503.92 276.79 506.49 256 506.48 C 239.05 506.49 222.15 504.78 205.55 501.39 C 189.43 498.09 173.67 493.19 158.52 486.78 C 128.77 474.17 101.73 455.93 78.89 433.08 C 56.04 410.24 37.8 383.2 25.19 353.45 C 18.78 338.3 13.88 322.54 10.58 306.42 C 7.19 289.82 5.48 272.92 5.49 255.97 C 5.47 230.13 9.45 204.43 17.3 179.81 C 24.9 156.03 36.02 133.52 50.29 113.04 C 51.95 110.65 54.51 109.02 57.38 108.5 C 60.25 107.99 63.21 108.64 65.6 110.31 C 67.99 111.97 69.63 114.53 70.14 117.4 C 70.65 120.27 70 123.23 68.34 125.62 C 55.33 144.29 45.19 164.81 38.26 186.49 C 31.1 208.96 27.47 232.39 27.49 255.97 C 27.48 271.43 29.04 286.86 32.13 302.01 C 35.14 316.7 39.61 331.06 45.45 344.87 C 56.96 372.02 73.59 396.68 94.45 417.52 C 115.29 438.38 139.96 455.01 167.1 466.52 C 180.91 472.37 195.27 476.83 209.96 479.84 C 225.11 482.93 240.54 484.49 256 484.48 C 274.97 484.49 293.86 482.15 312.24 477.5 C 330.02 472.99 347.19 466.34 363.37 457.7 C 395.34 440.62 422.82 416.21 443.55 386.48 Z" style="fill: inherit;"/><path d="M 245 83 C 245 80.08 246.16 77.28 248.22 75.22 C 250.28 73.16 253.08 72 256 72 C 258.92 72 261.72 73.16 263.78 75.22 C 265.84 77.28 267 80.08 267 83 L 267 272.33 L 151.53 339.51 C 149.01 340.97 146.01 341.38 143.19 340.63 C 140.37 339.89 137.96 338.05 136.49 335.53 C 135.03 333.01 134.62 330.01 135.37 327.19 C 136.11 324.37 137.95 321.96 140.47 320.49 L 245 259.67 L 245 83 Z" style="fill: inherit;"/></g></svg>