<svg xmlns="http://www.w3.org/2000/svg" xmlns:xlink="http://www.w3.org/1999/xlink" preserveAspectRatio="xMidYMid meet" version="1.0" viewBox="0.0 -0.0 1100.1 593.5" zoomAndPan="magnify" style="fill: rgb(0, 0, 0);" original_string_length="12638"><g id="__id800_s4z1lhpx9i" style="fill: rgb(84, 172, 226);"><path d="M 826.914062 557.042969 C 824.230469 515.765625 812.34375 475.472656 792.128906 439.546875 C 792.128906 439.542969 792.125 439.539062 792.121094 439.539062 C 818.351562 422.398438 848.617188 413.363281 880.324219 413.363281 L 890.914062 413.363281 C 890.984375 413.363281 891.054688 413.367188 891.121094 413.367188 C 891.191406 413.367188 891.261719 413.363281 891.328125 413.363281 L 901.933594 413.363281 C 984.996094 413.363281 1053.628906 476.335938 1062.601562 557.042969 Z M 310.570312 557.039062 C 313.210938 521.691406 323.605469 487.257812 341.027344 456.511719 C 383.710938 381.125 463.949219 334.273438 550.480469 334.1875 C 550.558594 334.1875 550.640625 334.191406 550.722656 334.191406 C 550.8125 334.191406 550.90625 334.1875 551 334.1875 C 615.21875 334.261719 675.589844 359.304688 721.015625 404.730469 C 736.628906 420.34375 750.007812 437.984375 760.785156 457.167969 C 777.984375 487.730469 788.253906 521.9375 790.875 557.039062 Z M 198.117188 413.363281 L 208.71875 413.363281 C 208.789062 413.363281 208.859375 413.367188 208.929688 413.367188 C 208.996094 413.367188 209.066406 413.363281 209.136719 413.363281 L 219.726562 413.363281 C 251.851562 413.363281 282.5 422.636719 308.964844 440.222656 C 288.980469 475.984375 277.207031 515.988281 274.53125 557.042969 L 37.449219 557.042969 C 46.421875 476.335938 115.054688 413.363281 198.117188 413.363281 Z M 208.929688 210.214844 C 255.023438 210.214844 292.527344 247.714844 292.527344 293.8125 C 292.527344 339.839844 255.136719 377.292969 209.136719 377.40625 L 208.71875 377.40625 C 162.71875 377.292969 125.328125 339.839844 125.328125 293.8125 C 125.328125 247.714844 162.832031 210.214844 208.929688 210.214844 Z M 419.832031 167.34375 C 419.832031 95.171875 478.546875 36.453125 550.722656 36.453125 C 622.894531 36.453125 681.613281 95.171875 681.613281 167.34375 C 681.613281 239.457031 622.992188 298.128906 550.90625 298.230469 C 550.84375 298.230469 550.777344 298.230469 550.714844 298.230469 C 550.660156 298.230469 550.605469 298.230469 550.554688 298.230469 C 478.457031 298.140625 419.832031 239.460938 419.832031 167.34375 Z M 891.121094 210.214844 C 937.21875 210.214844 974.722656 247.714844 974.722656 293.8125 C 974.722656 339.839844 937.332031 377.292969 891.328125 377.40625 L 890.914062 377.40625 C 844.914062 377.292969 807.523438 339.839844 807.523438 293.8125 C 807.523438 247.714844 845.027344 210.214844 891.121094 210.214844 Z M 964.980469 387.71875 C 992.78125 365.808594 1010.679688 331.871094 1010.679688 293.8125 C 1010.679688 227.890625 957.046875 174.257812 891.121094 174.257812 C 825.199219 174.257812 771.566406 227.890625 771.566406 293.8125 C 771.566406 331.839844 789.4375 365.753906 817.199219 387.664062 C 801.519531 392.941406 786.535156 400.238281 772.488281 409.421875 C 764.546875 398.800781 755.855469 388.722656 746.441406 379.304688 C 714.699219 347.566406 676.609375 324.503906 635.039062 311.265625 C 684.378906 282.246094 717.570312 228.605469 717.570312 167.34375 C 717.570312 75.34375 642.722656 0.496094 550.722656 0.496094 C 458.722656 0.496094 383.875 75.34375 383.875 167.34375 C 383.875 228.695312 417.164062 282.410156 466.625 311.394531 C 411.839844 328.925781 363.296875 363.269531 328.503906 410.046875 C 314.183594 400.570312 298.882812 393.0625 282.851562 387.664062 C 310.613281 365.753906 328.484375 331.839844 328.484375 293.8125 C 328.484375 227.890625 274.851562 174.257812 208.929688 174.257812 C 143.003906 174.257812 89.371094 227.890625 89.371094 293.8125 C 89.371094 331.871094 107.269531 365.808594 135.066406 387.71875 C 56.921875 414.09375 0.5 488.089844 0.5 575.023438 C 0.5 584.949219 8.550781 593 18.476562 593 L 289.894531 593 C 290.253906 593 290.605469 592.96875 290.960938 592.945312 C 291.28125 592.964844 291.597656 592.996094 291.921875 592.996094 L 809.523438 592.996094 C 809.613281 592.996094 809.699219 592.984375 809.785156 592.980469 C 809.910156 592.984375 810.03125 593 810.15625 593 L 1081.570312 593 C 1091.5 593 1099.550781 584.949219 1099.550781 575.023438 C 1099.550781 488.089844 1043.128906 414.09375 964.980469 387.71875" style="fill: inherit;"/><path d="M 550.90625 298.730469 L 550.800781 298.730469 L 550.714844 298.230469 L 550.71875 297.726562 L 550.820312 297.730469 C 622.699219 297.632812 681.113281 239.140625 681.113281 167.34375 C 681.113281 95.445312 622.617188 36.953125 550.722656 36.953125 C 478.824219 36.953125 420.332031 95.445312 420.332031 167.34375 C 420.332031 239.148438 478.746094 297.640625 550.554688 297.730469 L 550.714844 298.230469 L 550.648438 298.730469 C 478.195312 298.640625 419.332031 239.699219 419.332031 167.34375 C 419.332031 94.894531 478.273438 35.953125 550.722656 35.953125 C 623.171875 35.953125 682.113281 94.894531 682.113281 167.34375 C 682.113281 239.691406 623.253906 298.628906 550.90625 298.730469 Z M 208.925781 210.714844 C 163.105469 210.714844 125.828125 247.992188 125.828125 293.8125 C 125.828125 339.515625 163.015625 376.792969 208.722656 376.90625 L 209.136719 376.90625 C 254.839844 376.792969 292.027344 339.515625 292.027344 293.8125 C 292.027344 247.992188 254.746094 210.714844 208.925781 210.714844 Z M 209.136719 377.90625 L 208.71875 377.90625 C 162.460938 377.789062 124.828125 340.066406 124.828125 293.8125 C 124.828125 247.4375 162.554688 209.714844 208.925781 209.714844 C 255.300781 209.714844 293.027344 247.4375 293.027344 293.8125 C 293.027344 340.066406 255.394531 377.789062 209.136719 377.90625 Z M 891.121094 210.714844 C 845.300781 210.714844 808.023438 247.992188 808.023438 293.8125 C 808.023438 339.515625 845.210938 376.792969 890.914062 376.90625 L 891.328125 376.90625 C 937.035156 376.792969 974.222656 339.515625 974.222656 293.8125 C 974.222656 247.992188 936.945312 210.714844 891.121094 210.714844 Z M 891.332031 377.90625 L 890.914062 377.90625 C 844.65625 377.789062 807.023438 340.066406 807.023438 293.8125 C 807.023438 247.4375 844.75 209.714844 891.121094 209.714844 C 937.496094 209.714844 975.222656 247.4375 975.222656 293.8125 C 975.222656 340.066406 937.589844 377.789062 891.332031 377.90625 Z M 311.109375 556.539062 L 790.335938 556.539062 C 787.660156 521.792969 777.296875 487.53125 760.351562 457.414062 C 749.59375 438.269531 736.242188 420.664062 720.660156 405.085938 C 675.339844 359.761719 615.085938 334.761719 551 334.6875 L 550.722656 334.691406 L 550.480469 334.6875 C 464.136719 334.773438 384.046875 381.546875 341.464844 456.757812 C 324.296875 487.058594 313.804688 521.546875 311.109375 556.539062 Z M 791.414062 557.539062 L 310.03125 557.539062 L 310.070312 557 C 312.710938 521.679688 323.265625 486.847656 340.59375 456.265625 C 383.351562 380.742188 463.777344 333.773438 550.480469 333.6875 L 550.722656 333.691406 L 551 333.6875 C 615.351562 333.761719 675.855469 358.867188 721.367188 404.378906 C 737.011719 420.023438 750.421875 437.699219 761.222656 456.921875 C 778.324219 487.320312 788.753906 521.929688 791.371094 557 Z M 38.007812 556.542969 L 274.0625 556.542969 C 276.78125 515.90625 288.613281 475.761719 308.300781 440.382812 C 282.023438 423.03125 251.40625 413.863281 219.726562 413.863281 L 198.117188 413.863281 C 116.066406 413.863281 47.335938 475.160156 38.007812 556.542969 Z M 275 557.542969 L 36.890625 557.542969 L 36.953125 556.988281 C 41.328125 517.632812 60.046875 481.257812 89.664062 454.566406 C 119.503906 427.671875 158.019531 412.863281 198.117188 412.863281 L 219.726562 412.863281 C 251.757812 412.863281 282.710938 422.179688 309.238281 439.804688 L 309.625 440.0625 L 309.398438 440.464844 C 289.574219 475.949219 277.6875 516.273438 275.03125 557.078125 Z M 827.382812 556.542969 L 1062.039062 556.542969 C 1052.710938 475.160156 983.980469 413.863281 901.933594 413.863281 L 880.324219 413.863281 C 849.078125 413.863281 818.820312 422.796875 792.789062 439.703125 C 812.691406 475.214844 824.652344 515.597656 827.382812 556.542969 Z M 1063.160156 557.542969 L 826.445312 557.542969 L 826.414062 557.078125 C 823.742188 515.972656 811.738281 475.414062 791.691406 439.789062 L 791.464844 439.382812 L 791.851562 439.117188 C 818.132812 421.941406 848.726562 412.863281 880.324219 412.863281 L 901.933594 412.863281 C 942.03125 412.863281 980.546875 427.671875 1010.390625 454.566406 C 1040 481.257812 1058.71875 517.632812 1063.101562 556.988281 Z M 809.78125 592.480469 C 809.863281 592.484375 809.925781 592.488281 809.992188 592.492188 C 810.046875 592.496094 810.097656 592.5 810.15625 592.5 L 1081.570312 592.5 C 1091.210938 592.5 1099.050781 584.660156 1099.050781 575.023438 C 1099.050781 490.371094 1045.109375 415.289062 964.820312 388.191406 L 963.949219 387.898438 L 964.671875 387.324219 C 993.59375 364.53125 1010.179688 330.445312 1010.179688 293.8125 C 1010.179688 228.164062 956.769531 174.757812 891.121094 174.757812 C 825.476562 174.757812 772.066406 228.164062 772.066406 293.8125 C 772.066406 330.414062 788.628906 364.480469 817.507812 387.273438 L 818.230469 387.847656 L 817.355469 388.140625 C 801.769531 393.386719 786.765625 400.6875 772.761719 409.839844 L 772.367188 410.097656 L 772.089844 409.722656 C 764.105469 399.046875 755.359375 388.933594 746.085938 379.660156 C 714.886719 348.460938 676.433594 324.976562 634.886719 311.742188 L 633.820312 311.402344 L 634.785156 310.832031 C 685.539062 280.984375 717.070312 226.003906 717.070312 167.34375 C 717.070312 75.621094 642.445312 0.996094 550.722656 0.996094 C 458.996094 0.996094 384.375 75.621094 384.375 167.34375 C 384.375 226.109375 415.988281 281.140625 466.878906 310.964844 L 467.84375 311.53125 L 466.777344 311.871094 C 411.292969 329.628906 363.617188 363.679688 328.90625 410.34375 L 328.625 410.722656 L 328.230469 410.460938 C 313.953125 401.015625 298.632812 393.503906 282.691406 388.140625 L 281.820312 387.847656 L 282.542969 387.273438 C 311.421875 364.480469 327.984375 330.414062 327.984375 293.8125 C 327.984375 228.164062 274.574219 174.757812 208.925781 174.757812 C 143.28125 174.757812 89.871094 228.164062 89.871094 293.8125 C 89.871094 330.445312 106.457031 364.53125 135.378906 387.324219 L 136.101562 387.898438 L 135.226562 388.191406 C 54.941406 415.289062 1 490.371094 1 575.023438 C 1 584.660156 8.839844 592.5 18.476562 592.5 L 289.894531 592.5 C 290.148438 592.5 290.394531 592.484375 290.644531 592.464844 L 290.929688 592.445312 L 291.292969 592.464844 C 291.5 592.480469 291.710938 592.496094 291.921875 592.496094 L 809.523438 592.496094 Z M 1081.570312 593.5 L 810.15625 593.5 C 810.074219 593.5 809.996094 593.496094 809.917969 593.488281 L 809.777344 593.480469 C 809.640625 593.492188 809.582031 593.496094 809.523438 593.496094 L 291.921875 593.496094 C 291.6875 593.496094 291.457031 593.480469 291.226562 593.460938 L 290.933594 593.445312 L 290.710938 593.460938 C 290.441406 593.480469 290.171875 593.5 289.894531 593.5 L 18.476562 593.5 C 8.289062 593.5 0 585.210938 0 575.023438 C 0 490.246094 53.828125 415.023438 134.039062 387.539062 C 105.320312 364.558594 88.871094 330.449219 88.871094 293.8125 C 88.871094 227.613281 142.730469 173.757812 208.925781 173.757812 C 275.125 173.757812 328.984375 227.613281 328.984375 293.8125 C 328.984375 330.417969 312.558594 364.507812 283.882812 387.488281 C 299.445312 392.808594 314.410156 400.164062 328.386719 409.367188 C 362.976562 363.023438 410.328125 329.125 465.414062 311.261719 C 441.054688 296.765625 420.617188 276.210938 406.269531 251.761719 C 391.292969 226.230469 383.375 197.039062 383.375 167.34375 C 383.375 75.070312 458.445312 -0.00390625 550.722656 -0.00390625 C 642.996094 -0.00390625 718.070312 75.070312 718.070312 167.34375 C 718.070312 196.996094 710.171875 226.148438 695.238281 251.648438 C 680.929688 276.070312 660.550781 296.617188 636.25 311.128906 C 677.542969 324.46875 715.746094 347.90625 746.792969 378.953125 C 755.992188 388.152344 764.675781 398.171875 772.609375 408.746094 C 786.308594 399.835938 800.957031 392.6875 816.167969 387.488281 C 787.492188 364.507812 771.066406 330.417969 771.066406 293.8125 C 771.066406 227.613281 824.925781 173.757812 891.121094 173.757812 C 957.320312 173.757812 1011.179688 227.613281 1011.179688 293.8125 C 1011.179688 330.449219 994.726562 364.558594 966.011719 387.539062 C 1046.21875 415.023438 1100.050781 490.246094 1100.050781 575.023438 C 1100.050781 585.210938 1091.761719 593.5 1081.570312 593.5" style="fill: inherit;"/></g></svg>